<svg width="18" height="18" viewBox="0 0 18 18" fill="none" xmlns="http://www.w3.org/2000/svg">
<path d="M8.15658 2.68689H2.59035C2.16856 2.68689 1.76405 2.85444 1.4658 3.15269C1.16755 3.45094 1 3.85545 1 4.27724V15.4097C1 15.8315 1.16755 16.236 1.4658 16.5342C1.76405 16.8325 2.16856 17 2.59035 17H13.7228C14.1446 17 14.5491 16.8325 14.8474 16.5342C15.1456 16.236 15.3132 15.8315 15.3132 15.4097V9.84347" stroke="#666666" stroke-width="1.5" stroke-linecap="round" stroke-linejoin="round"/>
<path d="M14.1205 1.49406C14.4368 1.17772 14.8658 1 15.3132 1C15.7606 1 16.1896 1.17772 16.506 1.49406C16.8223 1.8104 17 2.23945 17 2.68682C17 3.13419 16.8223 3.56324 16.506 3.87958L8.95182 11.4337L5.77112 12.2289L6.56629 9.04822L14.1205 1.49406Z" stroke="#666666" stroke-width="1.5" stroke-linecap="round" stroke-linejoin="round"/>
</svg>
