<svg width="24" height="24" viewBox="0 0 24 24" fill="none" xmlns="http://www.w3.org/2000/svg">
<path d="M19.8101 16.1543C18.783 18.4451 16.5246 20.1402 13.8007 20.529" stroke="#666666" stroke-width="1.5" stroke-linecap="round" stroke-linejoin="round"/>
<path d="M19.1996 16.1533C20.6395 16.1533 20.9994 15.4017 20.9994 14.4831V11.1428C20.9994 10.2242 20.6395 9.47266 19.1996 9.47266C17.7597 9.47266 17.3998 10.2242 17.3998 11.1428V14.4831C17.3998 15.4017 17.7597 16.1533 19.1996 16.1533Z" stroke="#666666" stroke-width="1.5" stroke-linecap="round" stroke-linejoin="round"/>
<path d="M4.80128 16.1533C6.24114 16.1533 6.6011 15.4017 6.6011 14.4831V11.1428C6.6011 10.2242 6.24114 9.47266 4.80128 9.47266C3.36143 9.47266 3.00146 10.2242 3.00146 11.1428V14.4831C3.00146 15.4017 3.36143 16.1533 4.80128 16.1533Z" stroke="#666666" stroke-width="1.5" stroke-linecap="round" stroke-linejoin="round"/>
<path d="M3.0018 10.4927C2.90281 5.7996 6.89841 2 11.9559 2C17.0134 2 21 5.7996 21 10.4009" stroke="#666666" stroke-width="1.5" stroke-linecap="round" stroke-linejoin="round"/>
<path d="M12.0012 22.0005C12.9952 22.0005 13.8011 21.2527 13.8011 20.3303C13.8011 19.4079 12.9952 18.6602 12.0012 18.6602C11.0072 18.6602 10.2014 19.4079 10.2014 20.3303C10.2014 21.2527 11.0072 22.0005 12.0012 22.0005Z" stroke="#666666" stroke-width="1.5" stroke-linecap="round" stroke-linejoin="round"/>
</svg>
