<svg width="24" height="24" viewBox="0 0 24 24" fill="none" xmlns="http://www.w3.org/2000/svg">
<path d="M9.33332 18H14.6667C17.3467 18 17.8267 16.9938 17.9667 15.7688L18.4667 10.7688C18.6467 9.24375 18.18 8 15.3333 8H8.66665C5.81999 8 5.35332 9.24375 5.53332 10.7688L6.03332 15.7688C6.17332 16.9938 6.65332 18 9.33332 18Z" stroke="#666666" stroke-width="1.5" stroke-miterlimit="10" stroke-linecap="round" stroke-linejoin="round"/>
<path d="M9.33331 7.99992V7.46659C9.33331 6.28659 9.33331 5.33325 11.4666 5.33325H12.5333C14.6666 5.33325 14.6666 6.28659 14.6666 7.46659V7.99992" stroke="#666666" stroke-width="1.5" stroke-miterlimit="10" stroke-linecap="round" stroke-linejoin="round"/>
<path d="M12 22C17.5228 22 22 17.5228 22 12C22 6.47715 17.5228 2 12 2C6.47715 2 2 6.47715 2 12C2 17.5228 6.47715 22 12 22Z" stroke="#666666" stroke-width="1.5" stroke-linecap="round" stroke-linejoin="round"/>
</svg>
