<svg width="24" height="24" viewBox="0 0 24 24" fill="none" xmlns="http://www.w3.org/2000/svg">
<path d="M17 21H7C3 21 2 20 2 16V8C2 4 3 3 7 3H17C21 3 22 4 22 8V16C22 20 21 21 17 21Z" stroke="#666666" stroke-width="1.5" stroke-linecap="round" stroke-linejoin="round"/>
<path d="M14.0001 8H19.0001" stroke="#666666" stroke-width="1.5" stroke-linecap="round" stroke-linejoin="round"/>
<path d="M8.49994 11.2902C9.49958 11.2902 10.3099 10.4798 10.3099 9.48017C10.3099 8.48053 9.49958 7.67017 8.49994 7.67017C7.50031 7.67017 6.68994 8.48053 6.68994 9.48017C6.68994 10.4798 7.50031 11.2902 8.49994 11.2902Z" stroke="#666666" stroke-width="1.5" stroke-linecap="round" stroke-linejoin="round"/>
<path d="M11.9999 16.33C11.8599 14.88 10.7099 13.74 9.25988 13.61C8.75988 13.56 8.24988 13.56 7.73988 13.61C6.28988 13.75 5.13988 14.88 4.99988 16.33" stroke="#666666" stroke-width="1.5" stroke-linecap="round" stroke-linejoin="round"/>
</svg>
