<svg width="24" height="24" viewBox="0 0 24 24" fill="none" xmlns="http://www.w3.org/2000/svg">
<g clip-path="url(#clip0_610_81756)">
<path d="M11.9999 7.95187C11.2088 7.95187 10.4354 8.18646 9.77761 8.62598C9.11982 9.06551 8.60713 9.69022 8.30439 10.4211C8.00164 11.152 7.92242 11.9563 8.07676 12.7322C8.2311 13.5081 8.61206 14.2208 9.17147 14.7802C9.73088 15.3397 10.4436 15.7206 11.2195 15.875C11.9954 16.0293 12.7997 15.9501 13.5306 15.6473C14.2615 15.3446 14.8862 14.8319 15.3257 14.1741C15.7653 13.5163 15.9998 12.743 15.9998 11.9518C15.9998 10.891 15.5784 9.87357 14.8283 9.12343C14.0781 8.37329 13.0607 7.95187 11.9999 7.95187ZM11.9999 14.3518C11.5252 14.3518 11.0612 14.2111 10.6665 13.9474C10.2718 13.6836 9.96423 13.3088 9.78258 12.8703C9.60093 12.4317 9.55341 11.9492 9.64601 11.4836C9.73861 11.0181 9.96719 10.5904 10.3028 10.2548C10.6385 9.91915 11.0661 9.69057 11.5317 9.59797C11.9972 9.50537 12.4798 9.55289 12.9183 9.73454C13.3569 9.91619 13.7317 10.2238 13.9954 10.6185C14.2591 11.0132 14.3999 11.4772 14.3999 11.9518C14.3999 12.5884 14.147 13.1988 13.6969 13.6489C13.2468 14.099 12.6364 14.3518 11.9999 14.3518ZM19.3118 6.43188C19.0926 6.19721 18.8276 6.01009 18.5331 5.88211C18.2386 5.75413 17.9209 5.68802 17.5998 5.68788H16.6878C16.5782 5.68753 16.4697 5.66462 16.3692 5.62058C16.2688 5.57654 16.1784 5.51231 16.1038 5.43188L14.9839 4.24789C14.9086 4.16891 14.8179 4.10617 14.7175 4.06352C14.6171 4.02087 14.509 3.99922 14.3999 3.99989H9.5999C9.49079 3.99922 9.38269 4.02087 9.28226 4.06352C9.18183 4.10617 9.09118 4.16891 9.0159 4.24789L7.89591 5.43188C7.82132 5.51231 7.73098 5.57654 7.63052 5.62058C7.53005 5.66462 7.4216 5.68753 7.31191 5.68788H6.39992C6.07881 5.68802 5.76116 5.75413 5.46667 5.88211C5.17217 6.01009 4.90711 6.19721 4.68793 6.43188C4.24213 6.90264 3.99561 7.52753 3.99993 8.17586V16.6158C3.99767 17.2614 4.24404 17.883 4.68793 18.3518C4.90519 18.5894 5.1697 18.7791 5.46451 18.9086C5.75932 19.0381 6.07792 19.1046 6.39992 19.1038H17.5998C17.9218 19.1046 18.2404 19.0381 18.5352 18.9086C18.8301 18.7791 19.0946 18.5894 19.3118 18.3518C19.7557 17.883 20.0021 17.2614 19.9998 16.6158V8.17586C20.0041 7.52753 19.7576 6.90264 19.3118 6.43188ZM18.3998 16.6158C18.4041 16.8557 18.3152 17.088 18.1518 17.2638C18.0816 17.34 17.9962 17.4008 17.9012 17.4421C17.8061 17.4834 17.7035 17.5045 17.5998 17.5038H6.39992C6.29627 17.5045 6.19362 17.4834 6.09856 17.4421C6.00351 17.4008 5.91814 17.34 5.84792 17.2638C5.68458 17.088 5.59569 16.8557 5.59992 16.6158V8.17586C5.59569 7.93592 5.68458 7.70368 5.84792 7.52787C5.91814 7.45162 6.00351 7.39088 6.09856 7.34955C6.19362 7.30823 6.29627 7.28722 6.39992 7.28787H7.31191C7.63847 7.28777 7.96158 7.22103 8.26145 7.09172C8.56133 6.96242 8.83166 6.77328 9.0559 6.53588L9.94389 5.59988H14.0559L14.9439 6.53588L15.5279 5.98388L14.9439 6.53588C15.1681 6.77328 15.4384 6.96242 15.7383 7.09172C16.0382 7.22103 16.3613 7.28777 16.6878 7.28787H17.5998C17.7035 7.28722 17.8061 7.30823 17.9012 7.34955C17.9962 7.39088 18.0816 7.45162 18.1518 7.52787C18.3152 7.70368 18.4041 7.93592 18.3998 8.17586V16.6158Z" fill="#666666"/>
</g>
<defs>
<clipPath id="clip0_610_81756">
<rect width="24" height="24" rx="12" fill="white"/>
</clipPath>
</defs>
</svg>
