<svg width="24" height="24" viewBox="0 0 24 24" fill="none" xmlns="http://www.w3.org/2000/svg">
<path d="M10.6 7.19999H13.8C15.4 7.19999 15.4 6.4 15.4 5.6C15.4 4 14.6 4 13.8 4H10.6C9.8 4 9 4 9 5.6C9 7.19999 9.8 7.19999 10.6 7.19999Z" stroke="#666666" stroke-width="1.5" stroke-miterlimit="10" stroke-linecap="round" stroke-linejoin="round"/>
<path d="M15.4 5.61597C18.064 5.75997 19.4 6.74396 19.4 10.4V15.1999C19.4 18.3999 18.6 19.9999 14.6 19.9999H9.79999C5.8 19.9999 5 18.3999 5 15.1999V10.4C5 6.75196 6.336 5.75997 8.99999 5.61597" stroke="#666666" stroke-width="1.5" stroke-miterlimit="10" stroke-linecap="round" stroke-linejoin="round"/>
<path d="M16.1997 19.7582C15.6264 19.9236 14.9489 19.9999 14.1541 19.9999H10.2453C9.45052 19.9999 8.773 19.9236 8.19971 19.7582C8.34303 18.1041 10.0824 16.7999 12.1997 16.7999C14.317 16.7999 16.0564 18.1041 16.1997 19.7582Z" stroke="#666666" stroke-width="1.5" stroke-linecap="round" stroke-linejoin="round"/>
<path d="M14.5863 12.6534C14.5863 13.9734 13.5196 15.0467 12.1997 15.0467C10.8797 15.0467 9.81299 13.9734 9.81299 12.6534C9.81299 11.3334 10.8797 10.2667 12.1997 10.2667C13.5196 10.2667 14.5863 11.3334 14.5863 12.6534Z" stroke="#666666" stroke-width="1.5" stroke-linecap="round" stroke-linejoin="round"/>
</svg>
