<svg width="24" height="24" viewBox="0 0 24 24" fill="none" xmlns="http://www.w3.org/2000/svg">
<path d="M20 6.53783C17.04 6.24449 14.0622 6.09338 11.0933 6.09338C9.33333 6.09338 7.57333 6.18227 5.81333 6.36005L4 6.53783" stroke="#666666" stroke-width="1.5" stroke-linecap="round" stroke-linejoin="round"/>
<path d="M8.88879 5.64L9.08435 4.47556C9.22657 3.63111 9.33324 3 10.8355 3H13.1643C14.6666 3 14.7821 3.66667 14.9155 4.48444L15.111 5.64" stroke="#666666" stroke-width="1.5" stroke-linecap="round" stroke-linejoin="round"/>
<path d="M18.0889 9.34668L17.5111 18.2978C17.4134 19.6933 17.3334 20.7778 14.8534 20.7778H9.14669C6.66669 20.7778 6.58669 19.6933 6.48891 18.2978L5.91113 9.34668" stroke="#666666" stroke-width="1.5" stroke-linecap="round" stroke-linejoin="round"/>
<path d="M10.5156 15.8889H13.4756" stroke="#666666" stroke-width="1.5" stroke-linecap="round" stroke-linejoin="round"/>
<path d="M9.77771 12.3334H14.2222" stroke="#666666" stroke-width="1.5" stroke-linecap="round" stroke-linejoin="round"/>
</svg>
