<svg width="24" height="24" viewBox="0 0 24 24" fill="none" xmlns="http://www.w3.org/2000/svg">
<path d="M8.2 12C5 12 5 13.432 5 15.2V16C5 18.208 5 20 9 20H15.4C18.6 20 19.4 18.208 19.4 16V15.2C19.4 13.432 19.4 12 16.2 12C15.4 12 15.176 12.168 14.76 12.48L13.944 13.344C13 14.352 11.4 14.352 10.448 13.344L9.64 12.48C9.224 12.168 9 12 8.2 12Z" stroke="#666666" stroke-width="1.5" stroke-miterlimit="10" stroke-linecap="round" stroke-linejoin="round"/>
<path d="M17.8 12V7.2C17.8 5.432 17.8 4 14.6 4H9.79998C6.59998 4 6.59998 5.432 6.59998 7.2V12" stroke="#666666" stroke-width="1.5" stroke-miterlimit="10" stroke-linecap="round" stroke-linejoin="round"/>
<path d="M11.0399 9.78394H13.7039" stroke="#666666" stroke-width="1.5" stroke-linecap="round" stroke-linejoin="round"/>
<path d="M10.3762 7.38403H14.3762" stroke="#666666" stroke-width="1.5" stroke-linecap="round" stroke-linejoin="round"/>
</svg>
