<svg width="24" height="24" viewBox="0 0 24 24" fill="none" xmlns="http://www.w3.org/2000/svg">
<path d="M12.0215 3.84656C9.13288 3.84656 6.78536 6.19407 6.78536 9.08265V11.6047C6.78536 12.137 6.55846 12.9486 6.28793 13.4024L5.28434 15.0693C4.66474 16.099 5.09235 17.2422 6.22684 17.6262C9.9881 18.8829 14.0461 18.8829 17.8073 17.6262C18.8633 17.2771 19.3258 16.0292 18.7498 15.0693L17.7463 13.4024C17.4844 12.9486 17.2576 12.137 17.2576 11.6047V9.08265C17.2576 6.2028 14.9013 3.84656 12.0215 3.84656Z" stroke="#666666" stroke-width="1.5" stroke-miterlimit="10" stroke-linecap="round"/>
<path d="M13.6359 4.09958C13.3654 4.02104 13.0861 3.95995 12.7981 3.92504C11.9604 3.82032 11.1575 3.88141 10.407 4.09958C10.6601 3.4538 11.2884 3 12.0214 3C12.7545 3 13.3828 3.4538 13.6359 4.09958Z" stroke="#666666" stroke-width="1.5" stroke-miterlimit="10" stroke-linecap="round" stroke-linejoin="round"/>
<path d="M14.6395 17.9403C14.6395 19.3802 13.4614 20.5584 12.0215 20.5584C11.3059 20.5584 10.6427 20.2616 10.1714 19.7904C9.70015 19.3191 9.40344 18.6559 9.40344 17.9403" stroke="#666666" stroke-width="1.5" stroke-miterlimit="10"/>
</svg>
