<svg width="24" height="24" viewBox="0 0 24 24" fill="none" xmlns="http://www.w3.org/2000/svg">
<path d="M16 19.4H8C4.8 19.4 4 18.6 4 15.4V9C4 5.8 4.8 5 8 5H16C19.2 5 20 5.8 20 9V15.4C20 18.6 19.2 19.4 16 19.4Z" stroke="#666666" stroke-width="1.5" stroke-linecap="round" stroke-linejoin="round"/>
<path d="M13.6 9H17.6" stroke="#666666" stroke-width="1.5" stroke-linecap="round" stroke-linejoin="round"/>
<path d="M9.19995 11.6321C9.99966 11.6321 10.648 10.9838 10.648 10.1841C10.648 9.38438 9.99966 8.73608 9.19995 8.73608C8.40024 8.73608 7.75195 9.38438 7.75195 10.1841C7.75195 10.9838 8.40024 11.6321 9.19995 11.6321Z" stroke="#666666" stroke-width="1.5" stroke-linecap="round" stroke-linejoin="round"/>
<path d="M12 15.664C11.888 14.504 10.968 13.592 9.80802 13.488C9.40802 13.448 9.00002 13.448 8.59202 13.488C7.43202 13.6 6.51202 14.504 6.40002 15.664" stroke="#666666" stroke-width="1.5" stroke-linecap="round" stroke-linejoin="round"/>
</svg>
