<svg width="24" height="24" viewBox="0 0 24 24" fill="none" xmlns="http://www.w3.org/2000/svg">
<path d="M5 9.66228V14.3296C5 16.0445 5 16.0445 6.6178 17.1365L11.0667 19.7088C11.7381 20.0971 12.8301 20.0971 13.4934 19.7088L17.9424 17.1365C19.5602 16.0445 19.5602 16.0445 19.5602 14.3377V9.66228C19.5602 7.95551 19.5602 7.95551 17.9424 6.8635L13.4934 4.2912C12.8301 3.90293 11.7381 3.90293 11.0667 4.2912L6.6178 6.8635C5 7.95551 5 7.95551 5 9.66228Z" stroke="#666666" stroke-width="1.5" stroke-linecap="round" stroke-linejoin="round"/>
<path d="M12.2801 14.4268C13.6203 14.4268 14.7068 13.3403 14.7068 12.0001C14.7068 10.6598 13.6203 9.57336 12.2801 9.57336C10.9399 9.57336 9.85339 10.6598 9.85339 12.0001C9.85339 13.3403 10.9399 14.4268 12.2801 14.4268Z" stroke="#666666" stroke-width="1.5" stroke-linecap="round" stroke-linejoin="round"/>
</svg>
