<svg width="24" height="24" viewBox="0 0 24 24" fill="none" xmlns="http://www.w3.org/2000/svg">
<path d="M12.1055 22L12.1055 13" stroke="#666666" stroke-width="1.5" stroke-linejoin="round"/>
<path d="M8 22H16.2111" stroke="#666666" stroke-width="1.5" stroke-linecap="round" stroke-linejoin="round"/>
<path d="M16.4765 10.0642C16.8102 9.81533 16.8809 9.34571 16.6345 9.01531C16.3882 8.6849 15.918 8.61883 15.5843 8.86772L16.4765 10.0642ZM12.4459 13.0709L16.4765 10.0642L15.5843 8.86772L11.5537 11.8744L12.4459 13.0709Z" fill="#666666"/>
<path d="M8.53488 8.47966C8.24455 8.18136 7.76972 8.17254 7.47431 8.45995C7.17891 8.74737 7.17479 9.22218 7.46512 9.52048L8.53488 8.47966ZM12.0421 12.0832L8.53488 8.47966L7.46512 9.52048L10.9724 13.124L12.0421 12.0832Z" fill="#666666"/>
<path d="M12 13V10C12 6.13 15.13 3 19 3H22" stroke="#666666" stroke-width="1.5" stroke-linecap="round" stroke-linejoin="round"/>
<path d="M2 3H5C8.87 3 12 6.13 12 10V11V13" stroke="#666666" stroke-width="1.5" stroke-linecap="round" stroke-linejoin="round"/>
<path d="M12 13V10C12 6.13 15.13 3 19 3H22" stroke="#666666" stroke-width="1.5" stroke-linecap="round" stroke-linejoin="round"/>
<path d="M2 3H5C8.87 3 12 6.13 12 10V11V13" stroke="#666666" stroke-width="1.5" stroke-linecap="round" stroke-linejoin="round"/>
<path d="M22 3V6C22 9.87 18.87 13 15 13L12 13" stroke="#666666" stroke-width="1.5" stroke-linecap="round" stroke-linejoin="round"/>
<path d="M12 13H9C5.13 13 2 9.87 2 6L2 5V3" stroke="#666666" stroke-width="1.5" stroke-linecap="round" stroke-linejoin="round"/>
</svg>
