<svg width="24" height="24" viewBox="0 0 24 24" fill="none" xmlns="http://www.w3.org/2000/svg">
<path d="M8.60076 20H15.0008C18.2168 20 18.7928 18.712 18.9608 17.144L19.5608 10.744C19.7768 8.79195 19.2168 7.19995 15.8008 7.19995H7.80076C4.38476 7.19995 3.82476 8.79195 4.04076 10.744L4.64076 17.144C4.80876 18.712 5.38476 20 8.60076 20Z" stroke="#666666" stroke-width="1.5" stroke-miterlimit="10" stroke-linecap="round" stroke-linejoin="round"/>
<path d="M8.60095 7.2V6.56C8.60095 5.144 8.60095 4 11.161 4H12.441C15.001 4 15.001 5.144 15.001 6.56V7.2" stroke="#666666" stroke-width="1.5" stroke-miterlimit="10" stroke-linecap="round" stroke-linejoin="round"/>
<path d="M13.4009 12.8V13.6C13.4009 13.608 13.4009 13.608 13.4009 13.616C13.4009 14.488 13.3929 15.2 11.8009 15.2C10.2169 15.2 10.2009 14.496 10.2009 13.624V12.8C10.2009 12 10.2009 12 11.0009 12H12.6009C13.4009 12 13.4009 12 13.4009 12.8Z" stroke="#666666" stroke-width="1.5" stroke-miterlimit="10" stroke-linecap="round" stroke-linejoin="round"/>
<path d="M19.5209 11.2C17.6729 12.544 15.5609 13.344 13.4009 13.616" stroke="#666666" stroke-width="1.5" stroke-miterlimit="10" stroke-linecap="round" stroke-linejoin="round"/>
<path d="M4.29663 11.416C6.09663 12.648 8.12863 13.392 10.2006 13.624" stroke="#666666" stroke-width="1.5" stroke-miterlimit="10" stroke-linecap="round" stroke-linejoin="round"/>
</svg>
