<svg width="24" height="24" viewBox="0 0 24 24" fill="none" xmlns="http://www.w3.org/2000/svg">
<path d="M4 15V9C4 8.384 4.024 7.832 4.088 7.344C4.384 4.712 5.624 4 9.008 4H14.008C17.384 4 18.632 4.712 18.92 7.344C18.992 7.832 19.008 8.384 19.008 9V15C19.008 15.616 18.984 16.168 18.92 16.664C18.624 19.288 17.384 20 14 20H9.008C5.632 20 4.384 19.288 4.096 16.664C4.024 16.168 4 15.616 4 15Z" stroke="#666666" stroke-width="1.5" stroke-linecap="round" stroke-linejoin="round"/>
<path d="M11.5039 14.3999C13.713 14.3999 15.5039 12.609 15.5039 10.3999C15.5039 8.19076 13.713 6.3999 11.5039 6.3999C9.29477 6.3999 7.50391 8.19076 7.50391 10.3999C7.50391 12.609 9.29477 14.3999 11.5039 14.3999Z" stroke="#666666" stroke-width="1.2" stroke-linecap="round" stroke-linejoin="round"/>
<path d="M7.50391 10.4001H15.5039" stroke="#666666" stroke-width="1.2" stroke-linecap="round" stroke-linejoin="round"/>
<path d="M11.5038 6.3999C12.5043 7.49524 13.0729 8.91672 13.1038 10.3999C13.0729 11.8831 12.5043 13.3046 11.5038 14.3999C10.5033 13.3046 9.93471 11.8831 9.90381 10.3999C9.93471 8.91672 10.5033 7.49524 11.5038 6.3999Z" stroke="#666666" stroke-width="1.2" stroke-linecap="round" stroke-linejoin="round"/>
<path d="M8.37988 17H14.3799" stroke="#666666" stroke-width="1.2" stroke-linecap="round"/>
</svg>
