<svg width="24" height="24" viewBox="0 0 24 24" fill="none" xmlns="http://www.w3.org/2000/svg">
<path d="M9.33752 13.864C9.33752 14.896 10.1295 15.728 11.1135 15.728H13.1215C13.9775 15.728 14.6735 15 14.6735 14.104C14.6735 13.128 14.2495 12.784 13.6175 12.56L10.3935 11.44C9.76152 11.216 9.33752 10.872 9.33752 9.89597C9.33752 8.99997 10.0335 8.27197 10.8895 8.27197H12.8975C13.8815 8.27197 14.6735 9.10397 14.6735 10.136" stroke="#666666" stroke-width="1.5" stroke-linecap="round" stroke-linejoin="round"/>
<path d="M12 7.19995V16.8" stroke="#666666" stroke-width="1.5" stroke-linecap="round" stroke-linejoin="round"/>
<path d="M12 20C16.4183 20 20 16.4183 20 12C20 7.58172 16.4183 4 12 4C7.58172 4 4 7.58172 4 12C4 16.4183 7.58172 20 12 20Z" stroke="#666666" stroke-width="1.5" stroke-linecap="round" stroke-linejoin="round"/>
</svg>
