<svg width="24" height="24" viewBox="0 0 24 24" fill="none" xmlns="http://www.w3.org/2000/svg">
<path d="M19 6.875C19 7.10706 18.9181 7.32962 18.7722 7.49372C18.6263 7.65781 18.4285 7.75 18.2222 7.75H5.77778C5.5715 7.75 5.37367 7.65781 5.22781 7.49372C5.08194 7.32962 5 7.10706 5 6.875C5 6.64294 5.08194 6.42038 5.22781 6.25628C5.37367 6.09219 5.5715 6 5.77778 6H18.2222C18.4285 6 18.6263 6.09219 18.7722 6.25628C18.9181 6.42038 19 6.64294 19 6.875ZM14.3333 11.25H5.77778C5.5715 11.25 5.37367 11.3422 5.22781 11.5063C5.08194 11.6704 5 11.8929 5 12.125C5 12.3571 5.08194 12.5796 5.22781 12.7437C5.37367 12.9078 5.5715 13 5.77778 13H14.3333C14.5396 13 14.7374 12.9078 14.8833 12.7437C15.0292 12.5796 15.1111 12.3571 15.1111 12.125C15.1111 11.8929 15.0292 11.6704 14.8833 11.5063C14.7374 11.3422 14.5396 11.25 14.3333 11.25ZM10.4444 16.5H5.77778C5.5715 16.5 5.37367 16.5922 5.22781 16.7563C5.08194 16.9204 5 17.1429 5 17.375C5 17.6071 5.08194 17.8296 5.22781 17.9937C5.37367 18.1578 5.5715 18.25 5.77778 18.25H10.4444C10.6507 18.25 10.8486 18.1578 10.9944 17.9937C11.1403 17.8296 11.2222 17.6071 11.2222 17.375C11.2222 17.1429 11.1403 16.9204 10.9944 16.7563C10.8486 16.5922 10.6507 16.5 10.4444 16.5Z" fill="#666666"/>
</svg>
