<svg width="24" height="24" viewBox="0 0 24 24" fill="none" xmlns="http://www.w3.org/2000/svg">
<path d="M2 19L2 16.58C2 15 3.00002 14 4.58002 14L8 14L8 20.99C8 22.1 7.08998 23 5.97998 23C4.88998 22.99 3.88998 22.55 3.16998 21.83C2.44998 21.1 2 20.1 2 19Z" stroke="#292D32" stroke-width="1.5" stroke-miterlimit="10" stroke-linecap="round" stroke-linejoin="round"/>
<path d="M22 4L22 17.7368L22 18.7895C22 21.1158 21 23 18 23L17 23L6 23C7.1 23 8 22.0526 8 20.8947L8 4C8 3.44772 8.44772 3 9 3L21 3C21.5523 3 22 3.44772 22 4Z" stroke="#292D32" stroke-width="1.5" stroke-miterlimit="10" stroke-linecap="round" stroke-linejoin="round"/>
<path d="M18 15.5825L12 15.5825" stroke="#292D32" stroke-width="1.5" stroke-linecap="round" stroke-linejoin="round"/>
<path d="M17.25 11.5825L12.75 11.5825" stroke="#292D32" stroke-width="1.5" stroke-linecap="round" stroke-linejoin="round"/>
</svg>
