<svg width="24" height="24" viewBox="0 0 24 24" fill="none" xmlns="http://www.w3.org/2000/svg">
<path d="M12 12C14.7614 12 17 9.76142 17 7C17 4.23858 14.7614 2 12 2C9.23858 2 7 4.23858 7 7C7 9.76142 9.23858 12 12 12Z" stroke="#292D32" stroke-width="1.5" stroke-linecap="round" stroke-linejoin="round"/>
<path d="M3.41003 22C3.41003 18.13 7.26003 15 12 15C12.96 15 13.89 15.13 14.76 15.37" stroke="#292D32" stroke-width="1.5" stroke-linecap="round" stroke-linejoin="round"/>
<path d="M22 17.2378C22 20.0381 19.4091 21.6896 18.2483 22.0845C18.1107 22.1324 17.8893 22.1324 17.7517 22.0845C17.255 21.917 16.4951 21.5161 15.7951 20.8998C14.8497 20.0681 14 18.8414 14 17.2378C14 15.9992 14.9933 15 16.2199 15C16.9499 15 17.5961 15.353 18.003 15.8915C18.4039 15.353 19.0501 15 19.7801 15C20.0972 15 20.3964 15.0658 20.6717 15.1855C21.4555 15.5325 22 16.3164 22 17.2378Z" stroke="#292D32" stroke-width="1.5" stroke-linecap="round" stroke-linejoin="round"/>
</svg>
